<?xml version="1.0" encoding="UTF-8" standalone="no"?>
<!DOCTYPE svg PUBLIC "-//W3C//DTD SVG 1.1//EN" "http://www.w3.org/Graphics/SVG/1.1/DTD/svg11.dtd">
<svg width="100%" height="100%" viewBox="0 0 1024 1024" version="1.1" xmlns="http://www.w3.org/2000/svg" xmlns:xlink="http://www.w3.org/1999/xlink" xml:space="preserve" xmlns:serif="http://www.serif.com/" style="fill-rule:evenodd;clip-rule:evenodd;stroke-linejoin:round;stroke-miterlimit:2;">
    <g>
        <g transform="matrix(1.24472,0,0,1.24472,-957.004,-85.8831)">
            <path d="M964.419,854.912C964.419,852.568 964.106,850.503 963.481,848.716C962.856,846.929 961.821,845.308 960.376,843.852C958.931,842.397 956.978,841.03 954.517,839.751C952.056,838.472 948.98,837.207 945.288,835.957C941.694,834.746 938.467,833.423 935.606,831.987C932.744,830.552 930.288,828.896 928.237,827.021C926.187,825.146 924.624,822.944 923.55,820.415C922.476,817.886 921.939,814.941 921.939,811.582C921.939,808.32 922.52,805.332 923.682,802.617C924.844,799.902 926.509,797.563 928.677,795.601C930.845,793.638 933.398,792.129 936.338,791.074C939.277,790.019 942.515,789.492 946.05,789.492C951.148,789.492 955.542,790.64 959.233,792.935C962.925,795.229 965.762,798.296 967.744,802.134C969.727,805.972 970.718,810.254 970.718,814.98L964.067,814.98C964.067,811.289 963.369,807.998 961.973,805.107C960.576,802.217 958.535,799.936 955.85,798.267C953.164,796.597 949.898,795.762 946.05,795.762C942.261,795.762 939.067,796.479 936.47,797.915C933.872,799.351 931.929,801.245 930.64,803.599C929.351,805.952 928.706,808.564 928.706,811.435C928.706,813.467 929.023,815.337 929.658,817.046C930.293,818.755 931.343,820.332 932.808,821.777C934.273,823.223 936.211,824.58 938.623,825.85C941.035,827.119 943.97,828.31 947.427,829.424C951.294,830.654 954.702,832.026 957.651,833.54C960.601,835.054 963.081,836.811 965.093,838.813C967.105,840.815 968.623,843.125 969.648,845.742C970.674,848.359 971.187,851.377 971.187,854.795C971.187,858.291 970.581,861.416 969.37,864.17C968.159,866.924 966.45,869.268 964.243,871.201C962.036,873.135 959.424,874.609 956.406,875.625C953.389,876.641 950.083,877.148 946.489,877.148C943.267,877.148 940.073,876.655 936.909,875.669C933.745,874.683 930.859,873.154 928.252,871.084C925.645,869.014 923.555,866.362 921.982,863.13C920.41,859.897 919.624,856.035 919.624,851.543L926.392,851.543C926.392,855.098 926.982,858.115 928.164,860.596C929.346,863.076 930.898,865.068 932.822,866.572C934.746,868.076 936.899,869.17 939.282,869.853C941.665,870.537 944.067,870.879 946.489,870.879C950.142,870.879 953.306,870.21 955.981,868.872C958.657,867.534 960.732,865.679 962.207,863.306C963.682,860.933 964.419,858.135 964.419,854.912Z" style="fill-rule:nonzero;"/>
            <path d="M1040.3,869.707L1040.3,875.976L1000.45,875.976L1000.45,869.707L1040.3,869.707ZM1002.3,790.664L1002.3,875.976L995.562,875.976L995.562,790.664L1002.3,790.664ZM1035.32,828.838L1035.32,835.166L1000.45,835.166L1000.45,828.838L1035.32,828.838ZM1040.01,790.664L1040.01,796.934L1000.45,796.934L1000.45,790.664L1040.01,790.664Z" style="fill-rule:nonzero;"/>
            <path d="M1108.15,849.346L1114.89,849.346C1114.5,855.713 1113.21,860.952 1111.04,865.063C1108.86,869.175 1105.86,872.226 1102.06,874.219C1098.25,876.211 1093.68,877.207 1088.35,877.207C1084.22,877.207 1080.53,876.406 1077.26,874.805C1073.98,873.203 1071.18,870.884 1068.85,867.847C1066.51,864.81 1064.74,861.128 1063.52,856.802C1062.3,852.476 1061.68,847.598 1061.68,842.168L1061.68,823.887C1061.68,818.555 1062.3,813.765 1063.53,809.517C1064.76,805.268 1066.55,801.655 1068.91,798.677C1071.26,795.698 1074.12,793.423 1077.49,791.851C1080.86,790.278 1084.64,789.492 1088.84,789.492C1094,789.492 1098.46,790.474 1102.22,792.436C1105.98,794.399 1108.93,797.432 1111.08,801.533C1113.23,805.635 1114.5,810.918 1114.89,817.383L1108.15,817.383C1107.78,812.148 1106.84,807.949 1105.34,804.785C1103.83,801.621 1101.71,799.326 1098.98,797.9C1096.25,796.475 1092.87,795.762 1088.84,795.762C1085.56,795.762 1082.66,796.396 1080.13,797.666C1077.6,798.935 1075.47,800.776 1073.74,803.188C1072.01,805.601 1070.69,808.53 1069.79,811.977C1068.88,815.425 1068.42,819.355 1068.42,823.769L1068.42,842.168C1068.42,846.484 1068.85,850.415 1069.7,853.96C1070.55,857.505 1071.8,860.542 1073.45,863.071C1075.1,865.601 1077.17,867.544 1079.66,868.901C1082.15,870.259 1085.04,870.937 1088.35,870.937C1092.54,870.937 1096.03,870.268 1098.79,868.931C1101.55,867.593 1103.7,865.356 1105.23,862.222C1106.77,859.087 1107.74,854.795 1108.15,849.346Z" style="fill-rule:nonzero;"/>
            <path d="M1184.7,790.664L1191.41,790.664L1191.41,850.781C1191.41,857.187 1190.26,862.319 1187.97,866.177C1185.67,870.034 1182.6,872.837 1178.76,874.585C1174.91,876.333 1170.67,877.207 1166.04,877.207C1161.26,877.207 1156.95,876.333 1153.13,874.585C1149.32,872.837 1146.29,870.034 1144.05,866.177C1141.82,862.319 1140.7,857.187 1140.7,850.781L1140.7,790.664L1147.41,790.664L1147.41,850.781C1147.41,855.762 1148.21,859.717 1149.82,862.646C1151.44,865.576 1153.64,867.69 1156.44,868.989C1159.25,870.288 1162.45,870.937 1166.04,870.937C1169.69,870.937 1172.92,870.288 1175.72,868.989C1178.53,867.69 1180.72,865.576 1182.32,862.646C1183.91,859.717 1184.7,855.762 1184.7,850.781L1184.7,790.664Z" style="fill-rule:nonzero;"/>
            <path d="M1219.57,790.664L1242.97,790.664C1247.99,790.664 1252.33,791.636 1255.98,793.579C1259.63,795.522 1262.45,798.359 1264.43,802.09C1266.42,805.82 1267.41,810.4 1267.41,815.83C1267.41,819.834 1266.7,823.481 1265.28,826.772C1263.87,830.063 1261.92,832.798 1259.45,834.976C1256.98,837.153 1254.08,838.652 1250.74,839.473L1248.54,840.469L1224.16,840.469L1224.05,834.199L1244.06,834.199C1247.79,834.199 1250.88,833.335 1253.35,831.606C1255.81,829.878 1257.65,827.612 1258.87,824.81C1260.09,822.007 1260.7,819.014 1260.7,815.83C1260.7,811.963 1260.03,808.608 1258.69,805.767C1257.35,802.925 1255.36,800.742 1252.71,799.219C1250.07,797.695 1246.82,796.934 1242.97,796.934L1226.3,796.934L1226.3,875.976L1219.57,875.976L1219.57,790.664ZM1263.34,875.976L1245,837.803L1252.17,837.744L1270.48,875.215L1270.48,875.976L1263.34,875.976Z" style="fill-rule:nonzero;"/>
            <rect x="1294.83" y="790.664" width="6.768" height="85.313" style="fill-rule:nonzero;"/>
            <path d="M1349.06,790.664L1349.06,875.976L1342.38,875.976L1342.38,790.664L1349.06,790.664ZM1373.32,790.664L1373.32,796.934L1318.18,796.934L1318.18,790.664L1373.32,790.664Z" style="fill-rule:nonzero;"/>
            <path d="M1397.13,790.664L1418.29,836.982L1439.56,790.664L1447.29,790.664L1421.63,843.896L1421.63,875.976L1414.92,875.976L1414.92,843.896L1389.28,790.664L1397.13,790.664Z" style="fill-rule:nonzero;"/>
        </g>
        <g transform="matrix(1.24472,0,0,1.24472,-408.613,-62.4107)">
            <path d="M450.043,633.704L423.526,734.761L397.425,734.761L435.899,611.769L452.194,611.769L450.043,633.704ZM470.864,734.761L444.266,633.704L441.8,611.769L458.353,611.769L497.13,734.761L470.864,734.761ZM471.823,688.919L471.823,709.393L416.258,709.393L416.258,688.919L471.823,688.919Z" style="fill-rule:nonzero;"/>
            <path d="M574.831,715.981L604.258,742.557L588.746,756.769L559.965,730.303L574.831,715.981ZM603.746,663.76L603.746,682.828C603.746,691.671 602.698,699.448 600.601,706.16C598.505,712.871 595.492,718.47 591.563,722.958C587.635,727.446 582.96,730.817 577.539,733.071C572.118,735.324 566.12,736.451 559.544,736.451C552.948,736.451 546.945,735.324 541.533,733.071C536.121,730.817 531.451,727.446 527.523,722.958C523.596,718.47 520.552,712.871 518.392,706.16C516.231,699.448 515.151,691.671 515.151,682.828L515.151,663.76C515.151,654.862 516.213,647.066 518.337,640.373C520.461,633.679 523.49,628.097 527.426,623.628C531.362,619.158 536.022,615.783 541.406,613.502C546.791,611.22 552.781,610.08 559.378,610.08C566.008,610.08 572.034,611.22 577.455,613.502C582.875,615.783 587.564,619.158 591.52,623.628C595.476,628.097 598.503,633.679 600.6,640.373C602.697,647.066 603.746,654.862 603.746,663.76ZM579.118,682.828L579.118,663.591C579.118,657.728 578.694,652.722 577.845,648.573C576.997,644.424 575.733,641.03 574.053,638.391C572.374,635.751 570.306,633.81 567.851,632.565C565.396,631.321 562.571,630.699 559.378,630.699C556.216,630.699 553.407,631.321 550.953,632.565C548.498,633.81 546.455,635.751 544.824,638.391C543.192,641.03 541.944,644.424 541.079,648.573C540.214,652.722 539.782,657.728 539.782,663.591L539.782,682.828C539.782,688.672 540.214,693.686 541.079,697.871C541.944,702.056 543.206,705.478 544.866,708.137C546.525,710.797 548.582,712.758 551.037,714.021C553.492,715.285 556.327,715.916 559.544,715.916C562.738,715.916 565.553,715.285 567.99,714.021C570.427,712.758 572.471,710.797 574.122,708.137C575.774,705.478 577.02,702.056 577.859,697.871C578.699,693.686 579.118,688.672 579.118,682.828Z" style="fill-rule:nonzero;"/>
            <path d="M691.645,611.769L716.372,611.769L716.372,696.243C716.372,705.708 714.636,713.404 711.164,719.331C707.692,725.258 702.914,729.593 696.828,732.336C690.742,735.079 683.793,736.451 675.982,736.451C668.064,736.451 661.042,735.079 654.918,732.336C648.794,729.593 644.026,725.258 640.616,719.331C637.206,713.404 635.501,705.708 635.501,696.243L635.501,611.769L660.174,611.769L660.174,696.243C660.174,701.582 660.784,705.692 662.004,708.574C663.224,711.455 664.995,713.41 667.318,714.437C669.64,715.465 672.528,715.978 675.982,715.978C679.437,715.978 682.306,715.465 684.591,714.437C686.876,713.41 688.623,711.455 689.832,708.574C691.041,705.692 691.645,701.582 691.645,696.243L691.645,611.769Z" style="fill-rule:nonzero;"/>
            <rect x="749.696" y="611.769" width="24.611" height="122.992" style="fill-rule:nonzero;"/>
            <path d="M863.938,714.289L863.938,734.761L812.788,734.761L812.788,714.289L863.938,714.289ZM820.389,611.769L820.389,734.761L795.639,734.761L795.639,611.769L820.389,611.769Z" style="fill-rule:nonzero;"/>
            <path d="M969.753,663.76L969.753,684.232C969.753,692.909 968.705,700.507 966.608,707.026C964.512,713.545 961.522,718.98 957.64,723.33C953.758,727.68 949.107,730.955 943.687,733.153C938.267,735.352 932.269,736.451 925.694,736.451C919.097,736.451 913.079,735.352 907.64,733.153C902.2,730.955 897.517,727.68 893.589,723.33C889.662,718.98 886.632,713.545 884.499,707.026C882.367,700.507 881.301,692.909 881.301,684.232L881.301,663.76C881.301,654.863 882.349,647.067 884.445,640.373C886.541,633.679 889.557,628.098 893.492,623.628C897.428,619.159 902.102,615.784 907.514,613.502C912.926,611.221 918.93,610.08 925.526,610.08C932.102,610.08 938.096,611.221 943.508,613.502C948.921,615.784 953.599,619.159 957.544,623.628C961.489,628.098 964.51,633.679 966.607,640.373C968.704,647.067 969.753,654.863 969.753,663.76ZM945.182,684.232L945.182,663.591C945.182,657.728 944.758,652.722 943.909,648.573C943.061,644.424 941.798,641.03 940.119,638.391C938.44,635.751 936.382,633.81 933.946,632.565C931.509,631.321 928.703,630.699 925.526,630.699C922.291,630.699 919.446,631.321 916.991,632.565C914.537,633.81 912.484,635.751 910.834,638.391C909.184,641.03 907.953,644.424 907.143,648.573C906.333,652.722 905.928,657.728 905.928,663.591L905.928,684.232C905.928,689.856 906.347,694.677 907.184,698.697C908.022,702.716 909.284,705.987 910.971,708.509C912.658,711.031 914.725,712.896 917.172,714.104C919.619,715.312 922.459,715.916 925.694,715.916C928.832,715.916 931.619,715.312 934.056,714.104C936.493,712.896 938.537,711.031 940.187,708.509C941.838,705.987 943.083,702.716 943.923,698.697C944.762,694.677 945.182,689.856 945.182,684.232Z" style="fill-rule:nonzero;"/>
            <path d="M1088.34,611.769L1088.34,734.761L1064.44,734.761L1025.86,657.845L1025.86,734.761L1002.34,734.761L1002.34,611.769L1025.94,611.769L1064.86,689.592L1064.86,611.769L1088.34,611.769Z" style="fill-rule:nonzero;"/>
        </g>
    </g>
    <g transform="matrix(1.24472,0,0,1.24472,-399.742,-118.26)">
        <g id="Layer2">
            <path d="M522.969,373.18L646.854,240.084L626.313,128.756L775.273,199.309L814.671,207.738L729.402,165.7L738.735,108.86L806.057,186.083L902.904,230.675L936.431,276.955L948.205,304.576L1000.17,364.176L976.636,416.35L962.575,431.381L947.209,464.99L908.506,488.119L844.823,457.323L813.838,472.054L768.988,617.581L522.969,373.18Z" style="fill:rgb(1,70,95);"/>
            <path d="M522.969,373.18L646.854,240.084L626.313,128.756L775.273,199.309L814.671,207.738L729.402,165.7L738.735,108.86L806.057,186.083L902.904,230.675L936.431,276.955L948.205,304.576L1000.17,364.176L976.636,416.35L962.575,431.381L947.209,464.99L908.506,488.119L844.823,457.323L813.838,472.054L768.988,617.581L522.969,373.18Z" style="fill:rgb(1,70,95);"/>
        </g>
        <g id="Layer3">
            <g transform="matrix(1.02112,0,0,1,-11.5695,2)">
                <path d="M702.244,284.955L666.245,426.891L547.737,374.855L616.664,354.952L659.868,259.284L702.244,284.955Z" style="fill:rgb(1,117,160);"/>
            </g>
            <path d="M668.748,428.891L751.793,514.315L765.92,614.534L670.338,519.58L668.748,428.891Z" style="fill:rgb(1,117,160);"/>
        </g>
        <g id="Layer1">
            <path d="M688.649,352.05L705.419,286.903L729.418,268.406L678.803,239.472L651.695,159.633L794.573,243.906L775.011,199.185L814.671,207.738L892.266,245.292L920.561,285.86L927.913,296.248L932.715,306.368L980.398,360.427L950.661,363.489L971.72,390.153L961.877,410.069L930.51,427.711L872.433,417.371L819.287,437.326L751.632,482.402L716.149,413.493L716.302,405.688L725.139,364.632L780.801,315.518L688.649,352.05ZM807.722,375.379L892.508,388.253L907.71,376.641L807.722,375.379ZM915.177,349.94L887.752,291.419L810.869,284.365L849.002,316.801L880.835,321.785L915.177,349.94ZM893.811,406.489L889.753,392.983L795.076,411.388L893.811,406.489Z" style="fill:rgb(37,167,194);"/>
            <path d="M907.121,471.546L870.307,447.691L883.26,432.752L917.869,441.68L943.314,441.18L936.678,452.688L907.121,471.546Z" style="fill:rgb(37,167,194);"/>
        </g>
    </g>
</svg>
