<?xml version="1.0" encoding="UTF-8" standalone="no"?>
<!DOCTYPE svg PUBLIC "-//W3C//DTD SVG 1.1//EN" "http://www.w3.org/Graphics/SVG/1.1/DTD/svg11.dtd">
<svg width="100%" height="100%" viewBox="0 0 594 634" version="1.1" xmlns="http://www.w3.org/2000/svg" xmlns:xlink="http://www.w3.org/1999/xlink" xml:space="preserve" xmlns:serif="http://www.serif.com/" style="fill-rule:evenodd;clip-rule:evenodd;stroke-linejoin:round;stroke-miterlimit:2;">
    <g transform="matrix(1,0,0,1,-251.205,-17.2395)">
        <g transform="matrix(1.24472,0,0,1.24472,-399.742,-118.26)">
            <g id="Layer2">
                <path d="M522.969,373.18L646.854,240.084L626.313,128.756L775.273,199.309L814.671,207.738L729.402,165.7L738.735,108.86L806.057,186.083L902.904,230.675L936.431,276.955L948.205,304.576L1000.17,364.176L976.636,416.35L962.575,431.381L947.209,464.99L908.506,488.119L844.823,457.323L813.838,472.054L768.988,617.581L522.969,373.18Z" style="fill:rgb(1,70,95);"/>
                <path d="M522.969,373.18L646.854,240.084L626.313,128.756L775.273,199.309L814.671,207.738L729.402,165.7L738.735,108.86L806.057,186.083L902.904,230.675L936.431,276.955L948.205,304.576L1000.17,364.176L976.636,416.35L962.575,431.381L947.209,464.99L908.506,488.119L844.823,457.323L813.838,472.054L768.988,617.581L522.969,373.18Z" style="fill:rgb(1,70,95);"/>
            </g>
            <g id="Layer3">
                <g transform="matrix(1.02112,0,0,1,-11.5695,2)">
                    <path d="M702.244,284.955L666.245,426.891L547.737,374.855L616.664,354.952L659.868,259.284L702.244,284.955Z" style="fill:rgb(1,117,160);"/>
                </g>
                <path d="M668.748,428.891L751.793,514.315L765.92,614.534L670.338,519.58L668.748,428.891Z" style="fill:rgb(1,117,160);"/>
            </g>
            <g id="Layer1">
                <path d="M688.649,352.05L705.419,286.903L729.418,268.406L678.803,239.472L651.695,159.633L794.573,243.906L775.011,199.185L814.671,207.738L892.266,245.292L920.561,285.86L927.913,296.248L932.715,306.368L980.398,360.427L950.661,363.489L971.72,390.153L961.877,410.069L930.51,427.711L872.433,417.371L819.287,437.326L751.632,482.402L716.149,413.493L716.302,405.688L725.139,364.632L780.801,315.518L688.649,352.05ZM807.722,375.379L892.508,388.253L907.71,376.641L807.722,375.379ZM915.177,349.94L887.752,291.419L810.869,284.365L849.002,316.801L880.835,321.785L915.177,349.94ZM893.811,406.489L889.753,392.983L795.076,411.388L893.811,406.489Z" style="fill:rgb(37,167,194);"/>
                <path d="M907.121,471.546L870.307,447.691L883.26,432.752L917.869,441.68L943.314,441.18L936.678,452.688L907.121,471.546Z" style="fill:rgb(37,167,194);"/>
            </g>
        </g>
    </g>
</svg>
